# xmcd
#
# Track frame offsets:
#	150
#	15170
#	35033
#	53676
#	72166
#	88666
#	100922
#	116282
#	135219
#	153957
#	177802
#	193967
#	210182
#	224470
#	238414
#	255656
#	271056
#
# Disc length: 3805 seconds
#
# Revision: 0
# Processed by: cddbd v1.5PL3 Copyright (c) Steve Scherf et al.
# Submitted via: dBpowerAMP V4.0
#
DISCID=e00edb11
DTITLE=Dois a Um - Volume 4
DYEAR=2004
DGENRE=Sertanejo
TTITLE0=Sinto falta desse amor
TTITLE1=Cai na real
TTITLE2=Perdoa
TTITLE3=Sentidos
TTITLE4=Mrs. Robinson
TTITLE5=Mulher boa
TTITLE6=Tadim tadim
TTITLE7=Quero falar de amor
TTITLE8=Eminência parda
TTITLE9=Quem de nós dois (La mia storia tra le dita)
TTITLE10=Podia ser você
TTITLE11=Sem o seu amor
TTITLE12=Pedra dos Deuses
TTITLE13=Na base do shenhenhen
TTITLE14=Amor clandestino
TTITLE15=Coração quebrado
TTITLE16=Toalha branca
EXTD=
EXTT0=
EXTT1=
EXTT2=
EXTT3=
EXTT4=
EXTT5=
EXTT6=
EXTT7=
EXTT8=
EXTT9=
EXTT10=
EXTT11=
EXTT12=
EXTT13=
EXTT14=
EXTT15=
EXTT16=
PLAYORDER=
